# xmcd
#
# Track frame offsets: 
#        150
#        15304
#        39292
#        75100
#        83940
#        100522
#        124040
#        150035
#
# Disc length: 2263 seconds
#
# Revision: 0
# Processed by: cddbd v1.5.1PL2 Copyright (c) Steve Scherf et al.
# Submitted via: ExactAudioCopy v0.95b3
#
DISCID=3908d508
DTITLE=Van Morrison - Colston Hall
DYEAR=1986
DGENRE=Celtic
TTITLE0=Here Comes The Knight
TTITLE1=In The Garden
TTITLE2=Summertime In England
TTITLE3=Full Force Gale
TTITLE4=Bright Side Of The Road
TTITLE5=Rave On John Donne > Rave On Part Two
TTITLE6=Satisfied
TTITLE7=Mona Lisa
EXTD=
EXTT0=
EXTT1=
EXTT2=
EXTT3=
EXTT4=
EXTT5=
EXTT6=
EXTT7=
PLAYORDER=
